<svg xmlns="http://www.w3.org/2000/svg" version="1.1" xmlns:xlink="http://www.w3.org/1999/xlink" width="32" height="32"><svg xmlns="http://www.w3.org/2000/svg" width="32" height="32" viewBox="0 0 24 24"><!-- Icon from Pixelarticons by Gerrit Halfmann - https://github.com/halfmage/pixelarticons/blob/master/LICENSE --><path fill="currentColor" d="M6 2h8v2h-2v2h-2V4H6zM4 6V4h2v2zm0 10H2V6h2zm2 2H4v-2h2zm2 2H6v-2h2zm10 0v2H8v-2zm2-2v2h-2v-2zm-2-4v-2h2v-2h2v8h-2v-4zm-6 0h6v2h-6zm-2-2h2v2h-2zm0 0V6H8v6zm8-10h2v2h2v2h-2v2h-2V6h-2V4h2z"></path></svg><style>@media (prefers-color-scheme: light) { :root { filter: contrast(1) brightness(0.1); } }
@media (prefers-color-scheme: dark) { :root { filter: contrast(0.3846153846153846) brightness(4.5); } }
</style></svg>